<?xml version="1.0" encoding="UTF-8" standalone="no"?>
<!-- Uploaded to: SVG Repo, www.svgrepo.com, Transformed by: SVG Repo Mixer Tools -->

<svg
   fill="#ffffff"
   width="32px"
   height="32px"
   viewBox="0 -32 576 576"
   stroke="#ffffff"
   transform="rotate(0)"
   version="1.1"
   id="svg1"
   sodipodi:docname="presentable.svg"
   inkscape:version="1.4.2 (f4327f4, 2025-05-13)"
   xmlns:inkscape="http://www.inkscape.org/namespaces/inkscape"
   xmlns:sodipodi="http://sodipodi.sourceforge.net/DTD/sodipodi-0.dtd"
   xmlns="http://www.w3.org/2000/svg"
   xmlns:svg="http://www.w3.org/2000/svg">
  <defs
     id="defs1" />
  <sodipodi:namedview
     id="namedview1"
     pagecolor="#505050"
     bordercolor="#eeeeee"
     borderopacity="1"
     inkscape:showpageshadow="0"
     inkscape:pageopacity="0"
     inkscape:pagecheckerboard="0"
     inkscape:deskcolor="#505050"
     inkscape:zoom="6.3671875"
     inkscape:cx="31.17546"
     inkscape:cy="19.239264"
     inkscape:window-width="1920"
     inkscape:window-height="1017"
     inkscape:window-x="-8"
     inkscape:window-y="-8"
     inkscape:window-maximized="1"
     inkscape:current-layer="svg1" />
  <g
     id="SVGRepo_bgCarrier"
     stroke-width="0" />
  <g
     id="SVGRepo_tracerCarrier"
     stroke-linecap="round"
     stroke-linejoin="round" />
  <g
     id="SVGRepo_iconCarrier"
     transform="translate(-0.01255672,-160)">
    <path
       d="m 565.3,328.1 c -11.8,-10.7 -30.2,-10 -42.6,0 L 430.3,402 c -11.3,9.1 -25.4,14 -40,14 H 272 c -8.8,0 -16,-7.2 -16,-16 0,-8.8 7.2,-16 16,-16 h 78.3 c 15.9,0 30.7,-10.9 33.3,-26.6 C 386.9,337.4 371.5,320 352,320 H 192 c -27,0 -53.1,9.3 -74.1,26.3 L 71.4,384 H 16 c -8.8,0 -16,7.2 -16,16 v 96 c 0,8.8 7.2,16 16,16 h 356.8 c 14.5,0 28.6,-4.9 40,-14 L 564,377 c 15.2,-12.1 16.4,-35.3 1.3,-48.9 z"
       id="path1" />
  </g>
</svg>
